<mxfile host="app.diagrams.net" modified="2021-09-21T02:27:43.613Z" agent="5.0 (Windows NT 10.0; Win64; x64) AppleWebKit/537.36 (KHTML, like Gecko) Chrome/93.0.4577.82 Safari/537.36" etag="YpILMqErHWITlvw11N_x" version="15.2.9" type="github">
  <diagram id="9R-tQG4aRk6D-Pf22OOb" name="Page-1">
    <mxGraphModel dx="1422" dy="762" grid="1" gridSize="10" guides="1" tooltips="1" connect="1" arrows="1" fold="1" page="1" pageScale="1" pageWidth="827" pageHeight="1169" math="0" shadow="0">
      <root>
        <mxCell id="0" />
        <mxCell id="1" parent="0" />
        <mxCell id="P0TZAcHTIMchEj3zc5ui-1" value="Camioneros" style="rounded=1;whiteSpace=wrap;html=1;" vertex="1" parent="1">
          <mxGeometry x="140" y="160" width="120" height="60" as="geometry" />
        </mxCell>
        <mxCell id="P0TZAcHTIMchEj3zc5ui-2" value="" style="endArrow=none;html=1;exitX=1;exitY=0.5;exitDx=0;exitDy=0;" edge="1" parent="1" source="P0TZAcHTIMchEj3zc5ui-1">
          <mxGeometry width="50" height="50" relative="1" as="geometry">
            <mxPoint x="390" y="420" as="sourcePoint" />
            <mxPoint x="320" y="190" as="targetPoint" />
          </mxGeometry>
        </mxCell>
        <mxCell id="P0TZAcHTIMchEj3zc5ui-3" value="Transportan" style="rhombus;whiteSpace=wrap;html=1;" vertex="1" parent="1">
          <mxGeometry x="320" y="150" width="80" height="80" as="geometry" />
        </mxCell>
        <mxCell id="P0TZAcHTIMchEj3zc5ui-4" value="Paquetes" style="rounded=1;whiteSpace=wrap;html=1;" vertex="1" parent="1">
          <mxGeometry x="480" y="160" width="120" height="60" as="geometry" />
        </mxCell>
        <mxCell id="P0TZAcHTIMchEj3zc5ui-5" value="" style="endArrow=none;html=1;exitX=1;exitY=0.5;exitDx=0;exitDy=0;entryX=0;entryY=0.5;entryDx=0;entryDy=0;" edge="1" parent="1" source="P0TZAcHTIMchEj3zc5ui-3" target="P0TZAcHTIMchEj3zc5ui-4">
          <mxGeometry width="50" height="50" relative="1" as="geometry">
            <mxPoint x="390" y="420" as="sourcePoint" />
            <mxPoint x="440" y="370" as="targetPoint" />
          </mxGeometry>
        </mxCell>
        <mxCell id="P0TZAcHTIMchEj3zc5ui-6" value="Llegan a&amp;nbsp;" style="rhombus;whiteSpace=wrap;html=1;" vertex="1" parent="1">
          <mxGeometry x="500" y="310" width="80" height="80" as="geometry" />
        </mxCell>
        <mxCell id="P0TZAcHTIMchEj3zc5ui-7" value="" style="endArrow=none;html=1;exitX=0.5;exitY=0;exitDx=0;exitDy=0;entryX=0.5;entryY=1;entryDx=0;entryDy=0;" edge="1" parent="1" source="P0TZAcHTIMchEj3zc5ui-6" target="P0TZAcHTIMchEj3zc5ui-4">
          <mxGeometry width="50" height="50" relative="1" as="geometry">
            <mxPoint x="390" y="420" as="sourcePoint" />
            <mxPoint x="440" y="370" as="targetPoint" />
          </mxGeometry>
        </mxCell>
        <mxCell id="P0TZAcHTIMchEj3zc5ui-8" value="" style="endArrow=none;html=1;exitX=0.5;exitY=1;exitDx=0;exitDy=0;" edge="1" parent="1" source="P0TZAcHTIMchEj3zc5ui-6" target="P0TZAcHTIMchEj3zc5ui-9">
          <mxGeometry width="50" height="50" relative="1" as="geometry">
            <mxPoint x="390" y="420" as="sourcePoint" />
            <mxPoint x="440" y="370" as="targetPoint" />
          </mxGeometry>
        </mxCell>
        <mxCell id="P0TZAcHTIMchEj3zc5ui-9" value="Provincias" style="rounded=1;whiteSpace=wrap;html=1;" vertex="1" parent="1">
          <mxGeometry x="480" y="450" width="120" height="60" as="geometry" />
        </mxCell>
        <mxCell id="P0TZAcHTIMchEj3zc5ui-10" value="Camiones" style="rounded=1;whiteSpace=wrap;html=1;" vertex="1" parent="1">
          <mxGeometry x="140" y="450" width="120" height="60" as="geometry" />
        </mxCell>
        <mxCell id="P0TZAcHTIMchEj3zc5ui-11" value="Conducen" style="rhombus;whiteSpace=wrap;html=1;" vertex="1" parent="1">
          <mxGeometry x="160" y="310" width="80" height="80" as="geometry" />
        </mxCell>
        <mxCell id="P0TZAcHTIMchEj3zc5ui-12" value="" style="endArrow=none;html=1;exitX=0.5;exitY=0;exitDx=0;exitDy=0;entryX=0.5;entryY=1;entryDx=0;entryDy=0;" edge="1" parent="1" source="P0TZAcHTIMchEj3zc5ui-11">
          <mxGeometry width="50" height="50" relative="1" as="geometry">
            <mxPoint x="50" y="420" as="sourcePoint" />
            <mxPoint x="200" y="220" as="targetPoint" />
          </mxGeometry>
        </mxCell>
        <mxCell id="P0TZAcHTIMchEj3zc5ui-13" value="" style="endArrow=none;html=1;exitX=0.5;exitY=1;exitDx=0;exitDy=0;" edge="1" parent="1" source="P0TZAcHTIMchEj3zc5ui-11">
          <mxGeometry width="50" height="50" relative="1" as="geometry">
            <mxPoint x="50" y="420" as="sourcePoint" />
            <mxPoint x="200" y="450" as="targetPoint" />
          </mxGeometry>
        </mxCell>
        <mxCell id="P0TZAcHTIMchEj3zc5ui-20" value="nombre" style="ellipse;whiteSpace=wrap;html=1;" vertex="1" parent="1">
          <mxGeometry x="170" y="70" width="60" height="40" as="geometry" />
        </mxCell>
        <mxCell id="P0TZAcHTIMchEj3zc5ui-21" value="Teléfono" style="ellipse;whiteSpace=wrap;html=1;" vertex="1" parent="1">
          <mxGeometry x="90" y="70" width="60" height="40" as="geometry" />
        </mxCell>
        <mxCell id="P0TZAcHTIMchEj3zc5ui-22" value="dni" style="ellipse;whiteSpace=wrap;html=1;" vertex="1" parent="1">
          <mxGeometry x="250" y="70" width="60" height="40" as="geometry" />
        </mxCell>
        <mxCell id="P0TZAcHTIMchEj3zc5ui-23" value="" style="endArrow=none;html=1;exitX=0.25;exitY=0;exitDx=0;exitDy=0;entryX=0.5;entryY=1;entryDx=0;entryDy=0;" edge="1" parent="1" source="P0TZAcHTIMchEj3zc5ui-1" target="P0TZAcHTIMchEj3zc5ui-21">
          <mxGeometry width="50" height="50" relative="1" as="geometry">
            <mxPoint x="390" y="400" as="sourcePoint" />
            <mxPoint x="440" y="350" as="targetPoint" />
          </mxGeometry>
        </mxCell>
        <mxCell id="P0TZAcHTIMchEj3zc5ui-24" value="" style="endArrow=none;html=1;exitX=0.5;exitY=0;exitDx=0;exitDy=0;entryX=0.5;entryY=1;entryDx=0;entryDy=0;" edge="1" parent="1" source="P0TZAcHTIMchEj3zc5ui-1" target="P0TZAcHTIMchEj3zc5ui-20">
          <mxGeometry width="50" height="50" relative="1" as="geometry">
            <mxPoint x="390" y="400" as="sourcePoint" />
            <mxPoint x="440" y="350" as="targetPoint" />
          </mxGeometry>
        </mxCell>
        <mxCell id="P0TZAcHTIMchEj3zc5ui-25" value="" style="endArrow=none;html=1;exitX=0.75;exitY=0;exitDx=0;exitDy=0;entryX=0.5;entryY=1;entryDx=0;entryDy=0;" edge="1" parent="1" source="P0TZAcHTIMchEj3zc5ui-1" target="P0TZAcHTIMchEj3zc5ui-22">
          <mxGeometry width="50" height="50" relative="1" as="geometry">
            <mxPoint x="390" y="400" as="sourcePoint" />
            <mxPoint x="440" y="350" as="targetPoint" />
          </mxGeometry>
        </mxCell>
        <mxCell id="P0TZAcHTIMchEj3zc5ui-26" value="dirección" style="ellipse;whiteSpace=wrap;html=1;" vertex="1" parent="1">
          <mxGeometry x="20" y="100" width="60" height="40" as="geometry" />
        </mxCell>
        <mxCell id="P0TZAcHTIMchEj3zc5ui-27" value="" style="endArrow=none;html=1;entryX=0;entryY=0.25;entryDx=0;entryDy=0;exitX=1;exitY=1;exitDx=0;exitDy=0;" edge="1" parent="1" source="P0TZAcHTIMchEj3zc5ui-26" target="P0TZAcHTIMchEj3zc5ui-1">
          <mxGeometry width="50" height="50" relative="1" as="geometry">
            <mxPoint x="390" y="400" as="sourcePoint" />
            <mxPoint x="440" y="350" as="targetPoint" />
          </mxGeometry>
        </mxCell>
        <mxCell id="P0TZAcHTIMchEj3zc5ui-28" value="Salario" style="ellipse;whiteSpace=wrap;html=1;" vertex="1" parent="1">
          <mxGeometry x="20" y="160" width="60" height="40" as="geometry" />
        </mxCell>
        <mxCell id="P0TZAcHTIMchEj3zc5ui-29" value="" style="endArrow=none;html=1;exitX=1;exitY=0.5;exitDx=0;exitDy=0;entryX=0;entryY=0.5;entryDx=0;entryDy=0;" edge="1" parent="1" source="P0TZAcHTIMchEj3zc5ui-28" target="P0TZAcHTIMchEj3zc5ui-1">
          <mxGeometry width="50" height="50" relative="1" as="geometry">
            <mxPoint x="390" y="400" as="sourcePoint" />
            <mxPoint x="440" y="350" as="targetPoint" />
          </mxGeometry>
        </mxCell>
        <mxCell id="P0TZAcHTIMchEj3zc5ui-30" value="Población" style="ellipse;whiteSpace=wrap;html=1;" vertex="1" parent="1">
          <mxGeometry x="20" y="210" width="60" height="40" as="geometry" />
        </mxCell>
        <mxCell id="P0TZAcHTIMchEj3zc5ui-31" value="" style="endArrow=none;html=1;exitX=1;exitY=0.5;exitDx=0;exitDy=0;entryX=0;entryY=0.75;entryDx=0;entryDy=0;" edge="1" parent="1" source="P0TZAcHTIMchEj3zc5ui-30" target="P0TZAcHTIMchEj3zc5ui-1">
          <mxGeometry width="50" height="50" relative="1" as="geometry">
            <mxPoint x="390" y="400" as="sourcePoint" />
            <mxPoint x="440" y="350" as="targetPoint" />
          </mxGeometry>
        </mxCell>
        <mxCell id="P0TZAcHTIMchEj3zc5ui-32" value="Código" style="ellipse;whiteSpace=wrap;html=1;" vertex="1" parent="1">
          <mxGeometry x="440" y="70" width="60" height="40" as="geometry" />
        </mxCell>
        <mxCell id="P0TZAcHTIMchEj3zc5ui-33" value="Destinatario" style="ellipse;whiteSpace=wrap;html=1;" vertex="1" parent="1">
          <mxGeometry x="520" y="70" width="70" height="40" as="geometry" />
        </mxCell>
        <mxCell id="P0TZAcHTIMchEj3zc5ui-34" value="Descripción" style="ellipse;whiteSpace=wrap;html=1;" vertex="1" parent="1">
          <mxGeometry x="610" y="70" width="70" height="40" as="geometry" />
        </mxCell>
        <mxCell id="P0TZAcHTIMchEj3zc5ui-35" value="Dirección destinatario" style="ellipse;whiteSpace=wrap;html=1;" vertex="1" parent="1">
          <mxGeometry x="640" y="140" width="70" height="40" as="geometry" />
        </mxCell>
        <mxCell id="P0TZAcHTIMchEj3zc5ui-36" value="" style="endArrow=none;html=1;exitX=0.25;exitY=0;exitDx=0;exitDy=0;entryX=0.5;entryY=1;entryDx=0;entryDy=0;" edge="1" parent="1" source="P0TZAcHTIMchEj3zc5ui-4" target="P0TZAcHTIMchEj3zc5ui-32">
          <mxGeometry width="50" height="50" relative="1" as="geometry">
            <mxPoint x="510" y="120" as="sourcePoint" />
            <mxPoint x="470" y="120" as="targetPoint" />
          </mxGeometry>
        </mxCell>
        <mxCell id="P0TZAcHTIMchEj3zc5ui-37" value="" style="endArrow=none;html=1;exitX=0.5;exitY=0;exitDx=0;exitDy=0;entryX=0.5;entryY=1;entryDx=0;entryDy=0;" edge="1" parent="1" source="P0TZAcHTIMchEj3zc5ui-4" target="P0TZAcHTIMchEj3zc5ui-33">
          <mxGeometry width="50" height="50" relative="1" as="geometry">
            <mxPoint x="540" y="140" as="sourcePoint" />
            <mxPoint x="590" y="90" as="targetPoint" />
          </mxGeometry>
        </mxCell>
        <mxCell id="P0TZAcHTIMchEj3zc5ui-38" value="" style="endArrow=none;html=1;exitX=0.75;exitY=0;exitDx=0;exitDy=0;entryX=0.5;entryY=1;entryDx=0;entryDy=0;" edge="1" parent="1" source="P0TZAcHTIMchEj3zc5ui-4" target="P0TZAcHTIMchEj3zc5ui-34">
          <mxGeometry width="50" height="50" relative="1" as="geometry">
            <mxPoint x="590" y="130" as="sourcePoint" />
            <mxPoint x="640" y="80" as="targetPoint" />
          </mxGeometry>
        </mxCell>
        <mxCell id="P0TZAcHTIMchEj3zc5ui-39" value="" style="endArrow=none;html=1;exitX=1;exitY=0.5;exitDx=0;exitDy=0;entryX=0;entryY=1;entryDx=0;entryDy=0;" edge="1" parent="1" source="P0TZAcHTIMchEj3zc5ui-4" target="P0TZAcHTIMchEj3zc5ui-35">
          <mxGeometry width="50" height="50" relative="1" as="geometry">
            <mxPoint x="620" y="190" as="sourcePoint" />
            <mxPoint x="670" y="140" as="targetPoint" />
          </mxGeometry>
        </mxCell>
        <mxCell id="P0TZAcHTIMchEj3zc5ui-40" value="1" style="text;html=1;strokeColor=none;fillColor=none;align=center;verticalAlign=middle;whiteSpace=wrap;rounded=0;" vertex="1" parent="1">
          <mxGeometry x="280" y="160" width="40" height="20" as="geometry" />
        </mxCell>
        <mxCell id="P0TZAcHTIMchEj3zc5ui-41" value="n" style="text;html=1;strokeColor=none;fillColor=none;align=center;verticalAlign=middle;whiteSpace=wrap;rounded=0;" vertex="1" parent="1">
          <mxGeometry x="400" y="160" width="40" height="20" as="geometry" />
        </mxCell>
        <mxCell id="P0TZAcHTIMchEj3zc5ui-42" value="Código&lt;br&gt;Provincia" style="ellipse;whiteSpace=wrap;html=1;" vertex="1" parent="1">
          <mxGeometry x="570" y="540" width="60" height="40" as="geometry" />
        </mxCell>
        <mxCell id="P0TZAcHTIMchEj3zc5ui-43" value="nombre" style="ellipse;whiteSpace=wrap;html=1;" vertex="1" parent="1">
          <mxGeometry x="460" y="540" width="60" height="40" as="geometry" />
        </mxCell>
        <mxCell id="P0TZAcHTIMchEj3zc5ui-44" value="" style="endArrow=none;html=1;exitX=0.5;exitY=0;exitDx=0;exitDy=0;entryX=0.25;entryY=1;entryDx=0;entryDy=0;" edge="1" parent="1" source="P0TZAcHTIMchEj3zc5ui-43" target="P0TZAcHTIMchEj3zc5ui-9">
          <mxGeometry width="50" height="50" relative="1" as="geometry">
            <mxPoint x="390" y="380" as="sourcePoint" />
            <mxPoint x="440" y="330" as="targetPoint" />
          </mxGeometry>
        </mxCell>
        <mxCell id="P0TZAcHTIMchEj3zc5ui-45" value="" style="endArrow=none;html=1;exitX=0.75;exitY=1;exitDx=0;exitDy=0;" edge="1" parent="1" source="P0TZAcHTIMchEj3zc5ui-9">
          <mxGeometry width="50" height="50" relative="1" as="geometry">
            <mxPoint x="390" y="380" as="sourcePoint" />
            <mxPoint x="600" y="540" as="targetPoint" />
          </mxGeometry>
        </mxCell>
        <mxCell id="P0TZAcHTIMchEj3zc5ui-46" value="1" style="text;html=1;strokeColor=none;fillColor=none;align=center;verticalAlign=middle;whiteSpace=wrap;rounded=0;" vertex="1" parent="1">
          <mxGeometry x="560" y="390" width="40" height="20" as="geometry" />
        </mxCell>
        <mxCell id="P0TZAcHTIMchEj3zc5ui-47" value="n" style="text;html=1;strokeColor=none;fillColor=none;align=center;verticalAlign=middle;whiteSpace=wrap;rounded=0;" vertex="1" parent="1">
          <mxGeometry x="560" y="270" width="40" height="20" as="geometry" />
        </mxCell>
        <mxCell id="P0TZAcHTIMchEj3zc5ui-48" value="n" style="text;html=1;strokeColor=none;fillColor=none;align=center;verticalAlign=middle;whiteSpace=wrap;rounded=0;" vertex="1" parent="1">
          <mxGeometry x="210" y="400" width="40" height="20" as="geometry" />
        </mxCell>
        <mxCell id="P0TZAcHTIMchEj3zc5ui-49" value="n" style="text;html=1;strokeColor=none;fillColor=none;align=center;verticalAlign=middle;whiteSpace=wrap;rounded=0;" vertex="1" parent="1">
          <mxGeometry x="210" y="280" width="40" height="20" as="geometry" />
        </mxCell>
        <mxCell id="P0TZAcHTIMchEj3zc5ui-50" value="Matrícula" style="ellipse;whiteSpace=wrap;html=1;" vertex="1" parent="1">
          <mxGeometry x="110" y="550" width="60" height="40" as="geometry" />
        </mxCell>
        <mxCell id="P0TZAcHTIMchEj3zc5ui-51" value="Modelo" style="ellipse;whiteSpace=wrap;html=1;" vertex="1" parent="1">
          <mxGeometry x="180" y="550" width="60" height="40" as="geometry" />
        </mxCell>
        <mxCell id="P0TZAcHTIMchEj3zc5ui-52" value="Tipo" style="ellipse;whiteSpace=wrap;html=1;" vertex="1" parent="1">
          <mxGeometry x="250" y="550" width="60" height="40" as="geometry" />
        </mxCell>
        <mxCell id="P0TZAcHTIMchEj3zc5ui-53" value="Potencia" style="ellipse;whiteSpace=wrap;html=1;" vertex="1" parent="1">
          <mxGeometry x="20" y="460" width="60" height="40" as="geometry" />
        </mxCell>
        <mxCell id="P0TZAcHTIMchEj3zc5ui-54" value="" style="endArrow=none;html=1;exitX=0.5;exitY=0;exitDx=0;exitDy=0;entryX=0.25;entryY=1;entryDx=0;entryDy=0;" edge="1" parent="1" source="P0TZAcHTIMchEj3zc5ui-50" target="P0TZAcHTIMchEj3zc5ui-10">
          <mxGeometry width="50" height="50" relative="1" as="geometry">
            <mxPoint x="390" y="380" as="sourcePoint" />
            <mxPoint x="440" y="330" as="targetPoint" />
          </mxGeometry>
        </mxCell>
        <mxCell id="P0TZAcHTIMchEj3zc5ui-55" value="" style="endArrow=none;html=1;exitX=0.5;exitY=0;exitDx=0;exitDy=0;entryX=0.5;entryY=1;entryDx=0;entryDy=0;" edge="1" parent="1" source="P0TZAcHTIMchEj3zc5ui-51" target="P0TZAcHTIMchEj3zc5ui-10">
          <mxGeometry width="50" height="50" relative="1" as="geometry">
            <mxPoint x="390" y="380" as="sourcePoint" />
            <mxPoint x="440" y="330" as="targetPoint" />
          </mxGeometry>
        </mxCell>
        <mxCell id="P0TZAcHTIMchEj3zc5ui-56" value="" style="endArrow=none;html=1;exitX=0.5;exitY=0;exitDx=0;exitDy=0;entryX=0.75;entryY=1;entryDx=0;entryDy=0;" edge="1" parent="1" source="P0TZAcHTIMchEj3zc5ui-52" target="P0TZAcHTIMchEj3zc5ui-10">
          <mxGeometry width="50" height="50" relative="1" as="geometry">
            <mxPoint x="390" y="380" as="sourcePoint" />
            <mxPoint x="440" y="330" as="targetPoint" />
          </mxGeometry>
        </mxCell>
        <mxCell id="P0TZAcHTIMchEj3zc5ui-57" value="" style="endArrow=none;html=1;exitX=1;exitY=0.5;exitDx=0;exitDy=0;entryX=0;entryY=0.5;entryDx=0;entryDy=0;" edge="1" parent="1" source="P0TZAcHTIMchEj3zc5ui-53" target="P0TZAcHTIMchEj3zc5ui-10">
          <mxGeometry width="50" height="50" relative="1" as="geometry">
            <mxPoint x="390" y="380" as="sourcePoint" />
            <mxPoint x="440" y="330" as="targetPoint" />
          </mxGeometry>
        </mxCell>
      </root>
    </mxGraphModel>
  </diagram>
</mxfile>
